# xmcd CD database file
#
# Track frame offsets:
#	150
#	22207
#	49587
#	82102
#	101360
#	136692
#	158940
#	179317
#	201152
#	228600
#	252525
#	274065
#	296672
#
# Disc length: 4233 seconds
#
# Revision: 0
# Processed by: cddbd v1.5.1PL0 Copyright (c) Steve Scherf et al.
# Submitted via: CDex 1.51
#
DISCID=bc10870d
DTITLE=Various Artist - JAZZ VOCAL On Blue Note
DYEAR=1997
DGENRE=Jazz
TTITLE0=SOFTLY AS IN A MORNING SUNRISE(Romberg-Hammerstein)/DIANNE REEVES
TTITLE1=YOU DON'T KNOW WHAT LOVE IS(Don Raye-Gene DePaul)/CASSANDRA WILSON
TTITLE2=MY FUNNY VALENTINE(Rodgets-Hart)/RACHELLE FERRELL
TTITLE3=THE MAN I LOVE(I. &G. Gershwin)/CARMEN McRAE
TTITLE4='ROUND MIDNIGHT(Monk-Williams-Hanighen)/BOBBY McFERRIN
TTITLE5=SUMMERTIME(I. &G. Gershwin)/CAECILIE NORBY
TTITLE6=IF YOU COULD SEE ME NOW(Sigman-Dameron)/SHELIA JORDAN
TTITLE7=TENDERLY(W. Gross)/DIANNE REEVES
TTITLE8=CLOSE YOUR EYES(B. Petkere)/KURT ELLING
TTITLE9=MOON RIVER(Mercer-Mancini)/CASSANDRA WILSON
TTITLE10=OLD FOLKS(Hill-Robison)/CARMEN McRAE
TTITLE11=FEEL LIKE MAKIN' LOVE(E. McDaniels)/MARLENA SHAW
TTITLE12=CALLING YOU(B. Telson)/HOLLY COLE
EXTD=YEAR: 1997
EXTT0=
EXTT1=
EXTT2=
EXTT3=
EXTT4=
EXTT5=
EXTT6=
EXTT7=
EXTT8=
EXTT9=
EXTT10=
EXTT11=
EXTT12=
PLAYORDER=
